<?xml version="1.0" encoding="utf-8"?>
<!-- Generator: Adobe Illustrator 18.1.0, SVG Export Plug-In . SVG Version: 6.00 Build 0)  -->
<!DOCTYPE svg PUBLIC "-//W3C//DTD SVG 1.1//EN" "http://www.w3.org/Graphics/SVG/1.1/DTD/svg11.dtd">
<svg version="1.1" id="Layer_1" xmlns="http://www.w3.org/2000/svg" xmlns:xlink="http://www.w3.org/1999/xlink" x="0px" y="0px"
	 viewBox="0 0 789.3 93" enable-background="new 0 0 789.3 93" xml:space="preserve">
<g>
	<path fill-rule="evenodd" clip-rule="evenodd" d="M88.3,71.1c0-3.6-2.4-4-2.4-4h-32c-17.3,0-17.2-12.5-17.2-12.5
		c0.1-5,0-29.6,0-29.6s-0.6-2.4-4.2-2.4c-3,0-4,2.4-4,2.4l0,29.4c-0.1,21.1,22.3,20.2,22.3,20.2c-7.9-0.3,35.2,0.1,35.2,0.1
		S88.3,73.9,88.3,71.1z"/>
	<path fill-rule="evenodd" clip-rule="evenodd" d="M177.2,24.8c-0.1-2-0.1-3.1-3.3-3.6h-24c-24.2-0.1-26.3,21.5-26.3,26.1V50
		c0,4.7,3.8,24.1,27.3,24.3h17.2c8.3,0,11.2-6.4,11.1-11c0-2.6,0-3.2,0-3.2c0.1-4.6,0.1-8.7,0-8.8c-3-2.9-7.7-1.2-7.8,0.7
		c-0.2,3.1-0.2,8.2-0.2,8.2c0.1,1.5,0.8,7-4.1,7.1c-1,0-3.7,0-4.6,0c-2.8,0-12,0-12,0c-17.7-1-19.2-17.4-19.2-17.4V48
		c0.4-19.6,19-19.4,19-19.4h25C175.4,28.5,177.3,28.4,177.2,24.8z"/>
	<path fill-rule="evenodd" clip-rule="evenodd" d="M204.4,72.3V46.9h39.5v25.4c0,0,1.4,1.6,4.4,1.7c4.1,0.2,4.4-1.7,4.4-1.7V21.2
		c0,0-1.6-1.9-4.6-1.9c-2.9,0-4.3,1.9-4.3,1.9v17.9h-39.5V21.2c0,0-1.3-1.8-4.2-1.8c-3.5,0-4.7,1.8-4.7,1.8v51.1
		c0,0,0.9,1.8,4.4,1.8C203.1,74.1,204.4,72.3,204.4,72.3z"/>
	<path fill-rule="evenodd" clip-rule="evenodd" d="M390.9,26.2c2.4-0.8,2.5-6.2-0.4-7.4h-12.1h-24.7c-16.8,0.1-16.5,13.4-16.5,13.4
		C337,46.4,348.2,47,353,47h25.8c9.1-0.3,7.6,9,7.6,9c0.4,8.5-7.6,9.3-7.6,9.3h-28.1l-12.2,0c-2.2,2-1,6.3,0,7.2h11.2H375
		c5,0,18.9-0.4,18.9-16.1c0,0,1.6-17.2-17.8-17h-26.8c-5.1-0.8-4.4-7-4.4-7c0.6-5.7,4.4-6.1,4.4-6.1H377L390.9,26.2z"/>
	<path fill-rule="evenodd" clip-rule="evenodd" d="M489.7,69.5v-19l19.5,0.2l21.5,19.5c0,0,1.5,0.8,3.2,0.9c5.4,0.3,5.4-3.2,5.4-3.2
		l-20-17.4h-1.8C533.5,49.9,533,35,533,35c0.2-8.3-6.5-15.9-14.1-15.9h-37.1v50.5c0,0,0.5,2.2,3.9,2.2
		C489.8,71.9,489.7,69.5,489.7,69.5z M525.6,35c0,6.2-4.4,9.1-6.2,9.1L489.6,44L489.5,26l29.8,0.1C521.1,26,525.6,29.5,525.6,35z"/>
	<path fill-rule="evenodd" clip-rule="evenodd" d="M690.3,39.4c0,0-0.2-9.6,0-13.5l26,32.3h0.5l26.5-32c-0.1,2.5-0.3,10.6-0.3,10.6
		l-0.2,32.4c0,0,0.5,2.4,3.4,2.4c3.9,0,3.8-2.3,3.8-2.3V21.9c0,0-0.4-3.6-6-3.6c-5,0-6.8,3-6.8,3l-20.4,25.8L696,21.3
		c0,0-1.5-3-6.5-3c-5.7,0-6.4,3.6-6.4,3.6v47.6c0,0,0.5,2.1,4,2.1c2.8,0,3.1-2.6,3.1-2.6L690.3,39.4z"/>
	<path fill-rule="evenodd" clip-rule="evenodd" d="M326.8,27.4c0,0,2.1,0.3,2.1-3.8c0-4.2-2.1-3.6-2.1-3.6h-58.8
		c0,0-2.5,0.3-2.5,3.8c0,3.7,2.5,3.5,2.5,3.5h24.9v43.7c0,0,0.5,2.3,4.5,2.3c4.2,0,4-2.4,4-2.4V27.3L326.8,27.4z"/>
	<path fill-rule="evenodd" clip-rule="evenodd" d="M464.6,26.2c0,0,2.1,0.4,2.1-3.7c0-4.2-2.1-3.6-2.1-3.6h-58.8
		c0,0-2.5,0.1-2.5,3.6c0,4,2.5,3.7,2.5,3.7h24.9v43.7c0,0,0.4,2.3,4.4,2.3c5.1,0,4.9-2.3,4.9-2.3V26.2H464.6z"/>
	<path fill-rule="evenodd" clip-rule="evenodd" d="M107.2,19.7c2.6,0,4.6,2.2,4.6,4.9v46.3c0,2.7-2.1,4.9-4.6,4.9s-4.7-2.2-4.7-4.9
		V24.6C102.6,21.9,104.7,19.7,107.2,19.7z"/>
	<path fill-rule="evenodd" clip-rule="evenodd" d="M646.5,19.2c-2.1-1.5-5-1-6.5,1.2l-25.3,43.2c-1.5,2.2-1.4,4.4,0.5,6.1
		c1.3,1.1,4.2,1.2,5.7-0.9l7.4-12.2c4.3,0.2,10.7,0.2,10.2,0.1h8c0.3,0,13.6,0,13.9-0.1l7.1,12.3c1.7,2,4.3,1.8,5.4,1.3
		c1.5-0.8,2.1-3.8,0.7-6L648.2,21c-0.3-0.4-0.6-0.8-1-1C647.1,19.7,646.8,19.4,646.5,19.2z M631.3,50.5L644,27.7l13,22.5L631.3,50.5
		z"/>
	<path fill-rule="evenodd" clip-rule="evenodd" d="M558.4,26.5h40.4c2.6,0,4.5-1.3,4.5-4s-2.1-4-4.6-4h-43.5c-1.4,0-2.2,0.3-3.4,1.2
		c-1,0.8-1.5,2.5-1.5,3.9v42c0,2.7,1.2,3.9,3.8,3.9c0.7,0,2.1,0.1,2.9,0.1h41.7c2.6,0,4.6-1.4,4.6-4.1s-1.6-4.3-4.2-4.3l-40.6,0.1
		l0-12.5l40.1,0.1c2.6,0,4.3-1.4,4.3-4c0-2.7-1.4-4.3-4-4.3h-40.6L558.4,26.5z"/>
</g>
</svg>
